<svg width="420" height="389" viewBox="0 0 420 389" fill="none" xmlns="http://www.w3.org/2000/svg">
<path fill-rule="evenodd" clip-rule="evenodd" d="M235.835 30.3769C235.9 30.2455 235.967 30.1095 236.035 29.9685C237.091 27.8018 238.586 24.5189 239.223 20.8961C239.304 20.4334 239.453 19.4727 239.42 18.2809C239.399 17.4996 239.274 14.1741 236.872 11.3601C233.797 7.7582 230.011 8.18747 228.322 8.73272C226.79 9.22716 225.746 10.0914 225.393 10.3906C224.135 11.4584 223.144 12.918 222.851 13.3498L222.812 13.4071C221.985 14.6168 221.047 16.175 220.585 16.9427C220.527 17.0385 220.476 17.1226 220.435 17.1915C219.731 18.3552 219.028 19.5179 218.327 20.6796C217.794 21.0433 217.319 21.3903 216.934 21.6768C216.572 21.9466 216.231 22.2077 215.978 22.4014L215.977 22.4024L215.976 22.4031L215.973 22.4051L215.846 22.5029C215.702 22.613 215.616 22.6771 215.574 22.7093L215.553 22.7245L215.541 22.7338C215.233 22.9406 214.926 23.1493 214.62 23.36C214.693 23.1348 214.762 22.9178 214.805 22.7725C214.866 22.5677 214.956 22.2578 215.042 21.8996L215.044 21.8894C215.099 21.6611 215.299 20.8322 215.371 19.7885C215.399 19.3694 215.492 17.9366 215.074 16.2012C214.622 14.3235 212.924 10.0473 208.393 9.00618C208.354 8.99723 208.315 8.98861 208.276 8.98033C208.226 8.30037 208.148 7.59339 208.035 7.00717C206.74 3.98064 201.574 0.0690603 198.213 0C196.656 0.503514 194.605 1.80732 194.039 2.33694C193.947 2.43069 193.859 2.52438 193.776 2.61667C193.7 2.57887 193.624 2.54202 193.546 2.50616C191.426 1.52662 189.491 1.73187 188.245 2.09296C186.181 2.69088 184.881 4.02307 184.602 4.30892L184.585 4.32715C183.819 5.10926 183.319 5.90734 183.199 6.09745L183.188 6.11496C182.628 7.00553 182.036 8.23057 181.725 8.8731L181.714 8.89548C181.315 9.72072 180.959 10.4751 180.647 11.1354C180.198 12.0877 179.84 12.8445 179.58 13.3364C178.054 16.2204 176.522 19.0845 174.986 21.9328C173.567 22.6191 172.666 23.5725 172.307 23.9737C171.5 24.8763 171.037 25.7595 170.926 25.9696L170.92 25.9821C170.623 26.5465 170.44 27.0273 170.399 27.1331L170.396 27.1422C170.327 27.321 170.277 27.4655 170.252 27.54C170.2 27.6934 170.162 27.8165 170.146 27.8663C170.112 27.9793 170.084 28.0745 170.072 28.1161C169.892 28.748 169.84 28.9091 169.794 29.0429C169.736 29.2122 169.645 29.4587 169.341 30.2302C168.325 32.8147 167.281 35.393 166.214 37.966C162.726 44.2633 159.218 50.5186 155.698 56.7773C154.312 55.5657 152.54 54.762 150.5 54.762C149.473 54.762 148.558 54.9556 147.797 55.2066C148.34 53.5137 148.866 51.7909 149.348 50.0622C149.592 49.1882 149.809 48.3548 149.968 47.6155C150.045 47.2549 150.144 46.7575 150.218 46.2019L150.222 46.1718C150.265 45.8496 150.456 44.4334 150.213 42.739C150.102 41.9638 149.69 39.4652 147.809 37.2502C145.312 34.3103 142.035 33.8523 139.623 34.5148C137.758 35.0272 136.542 36.1226 136.14 36.4984C135.605 36.998 135.226 37.4717 135.021 37.7398C134.348 38.6221 133.866 39.5601 133.709 39.8644L133.699 39.8851C133.026 41.1916 132.097 43.3568 131.696 44.2887C131.626 44.453 131.572 44.579 131.538 44.6551C126.484 56.2097 121.077 67.5177 115.383 78.6339C115.053 78.308 114.69 77.9991 114.291 77.715C112.386 76.3601 110.488 76.1572 109.208 76.2525C108.055 76.3383 107.09 76.684 106.397 77.0194C106.329 76.5278 106.223 75.9823 106.059 75.4071C105.494 73.4306 103.772 69.8396 99.8216 68.7405C96.6394 67.855 94.2239 69.3147 93.5764 69.7298C92.1469 70.6462 91.2489 71.8594 91.0896 72.0746L91.0728 72.0972C90.755 72.5199 90.5001 72.9178 90.3371 73.1808C89.999 73.7263 89.6761 74.3105 89.4197 74.7887C88.7508 76.0361 86.8 79.991 87.3612 78.9076C85.2879 82.9099 83.2167 86.8856 81.1292 90.8312C81.0978 90.6223 81.0622 90.413 81.0223 90.2037C80.756 88.809 79.8293 85.345 76.6175 83.2655C73.3101 81.1242 70.2111 82.1321 68.9697 82.7003C66.8868 83.6536 65.4904 85.3681 65.1734 85.7574L65.1381 85.8006C64.5761 86.4828 64.0838 87.1885 63.7733 87.6429C63.432 88.1423 63.3684 88.2414 63.3207 88.3155C63.2827 88.3746 63.2547 88.4182 63.1038 88.6369C62.7866 89.0966 62.47 89.5559 62.1541 90.0148C59.7253 90.162 58.0688 91.4505 57.6773 91.7551L57.6691 91.7614C57.0247 92.2625 56.5506 92.7686 56.2942 93.0553C55.7599 93.6529 55.3062 94.2806 54.9876 94.7402C53.2859 97.195 51.5889 100.162 50.2164 102.561C49.6779 103.502 49.1893 104.356 48.77 105.058C42.7914 115.06 36.5095 124.785 29.8688 134.114C27.4316 137.537 24.8195 141.055 22.14 144.663L22.1389 144.664L22.1374 144.666L22.1368 144.667C15.8891 153.079 9.27488 161.986 3.65705 171.348C3.65482 171.35 3.61599 171.408 3.50327 171.577L3.50189 171.579L3.37353 171.771C3.13864 172.124 2.78286 172.662 2.4219 173.26C2.08806 173.813 1.5895 174.679 1.15437 175.687C0.934783 176.195 0.640586 176.945 0.407063 177.862C0.196477 178.688 -0.132426 180.284 0.056311 182.261C0.136884 183.105 0.582452 187.139 4.01165 189.702C7.74705 192.494 11.3375 190.908 12.2646 190.428C13.4278 189.825 14.2039 189.063 14.456 188.811C14.8025 188.465 15.0632 188.153 15.205 187.978C15.412 187.722 15.596 187.471 15.6881 187.343C17.2535 185.405 18.5175 183.364 19.4508 181.855C19.9407 181.063 20.4338 180.274 20.93 179.488C20.8934 179.574 20.8565 179.663 20.8199 179.754L20.811 179.776C20.708 180.031 20.2816 181.087 20.07 182.473C19.9884 183.007 19.657 185.194 20.4675 187.763C20.9404 189.262 21.8458 191.01 23.4278 192.383C25.0034 193.751 26.6814 194.254 28.0099 194.363C30.295 194.551 31.9699 193.624 32.3833 193.395C33.0309 193.035 33.5058 192.657 33.7408 192.462C33.7649 192.442 33.7887 192.421 33.8124 192.401C33.9492 192.759 34.1091 193.121 34.2951 193.484C33.2899 195.298 32.1356 197.142 30.8721 199.007C30.9161 198.939 30.8486 199.024 30.3447 199.693C29.9249 200.251 29.336 201.047 28.7667 201.891C28.3066 202.573 27.4413 203.887 26.8113 205.351L26.7966 205.385C26.5817 205.883 25.6859 207.956 25.7367 210.678C25.7584 211.843 25.965 213.47 26.6886 215.14C24.9656 217.122 22.994 219.089 20.7526 221.313L20.7081 221.35C20.6428 221.405 20.5334 221.496 20.3653 221.634C19.9935 221.94 19.4037 222.426 18.8048 222.97C18.2496 223.474 17.4092 224.273 16.6273 225.262C16.2331 225.761 15.6826 226.521 15.1798 227.51C14.7152 228.424 13.9619 230.17 13.8359 232.517C13.5957 236.992 15.784 239.976 17.3291 241.333C18.6639 242.505 19.9647 242.953 20.4763 243.115C21.6258 243.479 22.6858 243.545 23.183 243.569C24.3751 243.626 25.7583 243.546 27.0133 243.442C28.971 243.278 31.3539 242.986 33.7969 242.648C33.7555 243.032 33.7223 243.469 33.7139 243.921L33.7135 243.939C33.7067 244.302 33.6846 245.467 34.0139 246.932C33.8698 247.801 33.7053 249.335 33.9578 251.031C34.0456 251.62 34.2989 252.964 35.0115 254.428C35.1206 255.983 35.5547 257.946 36.7906 259.83C38.5706 262.543 40.9384 263.455 42.3843 263.736C43.2957 263.913 44.1688 263.971 44.9806 263.956C45.1372 264.282 45.3149 264.613 45.5162 264.942C45.2643 265.658 45.0079 266.425 44.7742 267.199C44.3636 268.559 43.5963 271.257 43.6256 274.081C43.6393 275.399 43.826 278.208 45.4946 280.889C45.3679 281.318 45.0903 282.324 44.9824 283.531L44.9813 283.543C44.937 284.038 44.7531 286.092 45.5627 288.448C45.8991 289.427 46.4649 290.618 47.3799 291.724C47.4893 293.377 47.9697 295.199 49.131 297.011C50.4449 299.061 52.07 300.039 53.0662 300.492C53.5395 300.708 53.9846 300.857 54.3773 300.962C54.3647 301.005 54.3522 301.048 54.3399 301.091C53.9608 302.413 53.2661 305.15 53.6768 308.257C53.7884 309.102 54.3834 313.174 57.9541 315.579C61.8528 318.204 65.4241 316.358 66.3282 315.821C67.3823 315.194 68.1086 314.447 68.4254 314.101C68.411 314.875 68.4675 315.764 68.6623 316.725C69.1932 319.343 70.6227 321.778 72.8369 323.27C74.7286 324.544 76.5187 324.675 77.419 324.666C78.1555 324.658 78.8265 324.545 79.3836 324.405C80.9105 324.879 82.1667 324.745 82.5779 324.696C82.9425 324.653 83.2807 324.586 83.5758 324.514C83.4192 325.26 83.2754 326.025 83.151 326.803L83.1421 326.858C83.0302 327.546 82.5414 330.551 83.7964 333.727C84.6489 335.885 86.2555 337.971 88.6423 339.057C90.7539 340.019 92.6167 339.801 93.5949 339.586C94.6283 339.36 95.509 338.942 96.1029 338.606C96.1456 338.625 96.1878 338.643 96.2293 338.661C96.2814 338.683 96.3325 338.704 96.3826 338.723C97.8859 339.318 99.188 339.317 99.7698 339.296C100.47 339.271 101.079 339.168 101.51 339.078C103.055 338.757 104.741 338.081 105.889 337.592C106.349 337.396 106.817 337.189 107.277 336.98C108.819 337.894 110.259 338.094 111.095 338.137C112.246 338.196 113.208 338.006 113.8 337.857C115.631 337.395 117.469 336.367 118.625 335.67C118.762 336.399 118.977 337.164 119.302 337.931L119.221 338.04C118.577 338.914 117.914 339.841 117.393 340.659C117.163 341.02 116.761 341.668 116.399 342.434C116.243 342.763 115.857 343.602 115.581 344.73C115.442 345.297 115.223 346.36 115.241 347.712C115.258 349.07 115.531 351.401 116.983 353.655C119.455 357.493 122.973 357.713 124.068 357.692C125.347 357.668 126.312 357.314 126.651 357.184C127.43 356.886 128.008 356.519 128.169 356.417L128.173 356.415C128.613 356.135 128.981 355.848 129.146 355.718C129.55 355.399 130 355.015 130.398 354.667C131.231 353.941 132.282 352.988 133.281 352.073C133.482 351.888 133.683 351.704 133.882 351.521C134.303 351.747 134.721 351.927 135.123 352.063C136.388 352.491 137.533 352.528 138.305 352.484C138.109 353.124 137.701 354.645 137.788 356.576C137.842 357.773 138.108 359.612 139.125 361.493C140.224 363.525 141.829 364.914 143.54 365.638C145.498 366.467 147.217 366.318 147.991 366.212C148.665 366.12 149.265 365.962 149.745 365.809C150.225 367.396 151.13 369.243 152.81 370.738C155.202 372.867 157.754 373.021 159.209 372.871C159.963 372.793 160.665 372.61 161.287 372.386C162.902 375.068 165.198 376.202 166.828 376.592C168.43 376.976 169.775 376.778 170.457 376.643C171.237 376.488 171.921 376.252 172.44 376.046C174.162 375.365 175.861 374.611 177.538 373.797C177.324 374.274 177.114 374.81 176.944 375.388L176.936 375.415C176.752 376.035 175.682 379.641 177.465 383.572C179.801 388.718 184.203 389.04 185.487 388.997C186.927 388.949 188.031 388.496 188.387 388.347C188.89 388.136 189.307 387.909 189.573 387.757C190.107 387.452 190.606 387.116 190.924 386.898C195.822 383.537 200.448 379.651 204.661 376.112L204.676 376.099C205.056 375.78 205.433 375.463 205.807 375.149C206.797 374.319 207.82 373.471 208.868 372.603C210.195 371.504 211.56 370.373 212.944 369.206C213.432 369.103 213.874 368.982 214.248 368.872C223.269 366.208 231.994 362.148 239.95 358.446L240.977 357.969C248.828 354.319 256.997 350.319 264.875 345.2C265.062 345.215 265.231 345.222 265.379 345.227C267.464 345.288 269.618 344.68 269.887 344.604L269.912 344.597C275.666 343.057 281.328 340.89 286.466 338.924L286.467 338.924C286.775 338.806 287.082 338.689 287.386 338.572C290.411 337.416 293.758 336.093 297.215 334.527C300.873 337.558 304.628 336.139 305.317 335.872C311.625 333.424 317.923 329.392 323.155 326.042L323.156 326.041C324.485 325.19 325.746 324.383 326.92 323.657C330.072 321.709 333.233 319.71 336.383 317.649C339.651 321.409 343.712 320.498 344.221 320.384L344.243 320.379C345.39 320.125 346.274 319.661 346.645 319.459C347.507 318.989 348.311 318.4 348.875 317.968C350.103 317.028 351.61 315.729 353.187 314.314C356.394 311.436 360.516 307.513 364.588 303.559C372.685 295.697 381.062 287.245 382.255 285.962C382.378 285.83 382.501 285.696 382.624 285.562C382.764 285.644 382.908 285.722 383.055 285.797C385.453 287.01 387.572 286.62 388.508 286.362C390.191 285.898 391.334 284.939 391.541 284.765L391.561 284.748C392.188 284.228 392.636 283.703 392.74 283.581L392.75 283.569C392.928 283.362 393.08 283.169 393.187 283.031C393.405 282.749 393.638 282.43 393.87 282.106C397.067 277.639 399.811 272.837 402.264 268.037C407.944 259.299 412.567 250.305 416.607 240.627C416.909 240.091 417.259 239.452 417.603 238.774C418.067 237.86 418.676 236.57 419.145 235.132C419.353 234.497 419.793 233.097 419.931 231.282C420.007 230.572 420.087 229.24 419.779 227.662C419.374 225.586 418.044 222.182 414.639 220.511C411.767 219.102 409.277 219.91 408.418 220.243C407.377 220.646 406.613 221.189 406.237 221.474C405.272 222.204 404.445 223.087 403.752 223.98C403.108 224.601 402.372 225.314 401.633 226.031C401.26 226.394 400.872 226.77 400.488 227.144C400.221 227.403 399.955 227.661 399.697 227.913C399.888 227.427 400.092 226.928 400.308 226.414C400.67 225.549 401.126 224.516 401.626 223.382L401.632 223.371L401.634 223.365L401.634 223.364C402.737 220.865 404.053 217.883 405.057 215.157C405.166 214.86 405.322 214.426 405.46 213.97C405.517 213.779 405.663 213.285 405.781 212.659C405.836 212.366 405.951 211.713 405.98 210.874L405.982 210.843C406 210.352 406.092 207.889 404.78 205.306C403.96 203.69 402.57 202.008 400.513 201.058C400.478 201.042 400.443 201.026 400.409 201.011C400.373 200.995 400.337 200.979 400.302 200.964C403.251 195.245 406.203 189.45 409.054 183.582C409.341 182.991 410.326 180.785 411.099 178.998C411.498 178.075 411.921 177.079 412.224 176.317C412.328 176.054 412.59 175.396 412.79 174.722C412.844 174.539 412.97 174.105 413.077 173.548C413.129 173.276 413.221 172.753 413.265 172.089C413.294 171.644 413.395 170.028 412.841 168.101C412.358 166.421 411.186 164.113 409.091 162.638C409.099 162.439 409.103 162.238 409.103 162.035C409.103 160.912 408.953 158.8 407.805 156.606C407.272 155.586 406.617 154.725 405.883 154.022C407.812 150.266 409.627 146.379 411.176 142.397C411.181 142.384 411.189 142.363 411.201 142.333C411.34 141.986 411.927 140.514 412.283 139.115L412.295 139.067C412.428 138.547 413 136.32 412.615 133.701C412.389 132.157 411.663 129.426 409.412 127.32C409.499 126.888 409.579 126.367 409.619 125.785C409.664 125.127 410.011 120.033 405.996 116.703C402.214 113.564 398.38 115.249 397.874 115.472L397.857 115.479C396.822 115.932 396.088 116.518 395.823 116.734C392.307 119.599 388.776 122.802 385.459 125.811L385.458 125.812C385.053 126.179 384.652 126.543 384.254 126.903C384.25 126.875 384.246 126.848 384.242 126.82C384.038 125.453 383.426 123.027 381.51 120.978C380.627 120.033 379.715 119.393 378.822 118.973C378.425 116.86 377.274 113.935 374.44 112.147C373.309 111.433 372.211 111.103 371.251 110.978L371.447 110.711L371.608 110.491C371.794 110.238 371.98 109.984 372.166 109.729C372.41 109.395 373.788 107.486 374.957 105.775C375.486 105 376.187 103.957 376.679 103.102C376.808 102.878 377.027 102.488 377.247 102.018C377.354 101.788 377.538 101.377 377.72 100.851L377.722 100.845C377.838 100.51 378.282 99.2205 378.351 97.4857C378.417 95.8011 378.049 90.1358 373.029 87.6903C369.748 86.0917 366.925 87.4044 366.54 87.5831L366.511 87.5966C365.249 88.166 364.342 88.9936 364.191 89.1308L364.175 89.1454C362.795 90.3813 361.37 91.8114 359.994 93.2584C359.692 92.6168 359.307 91.9653 358.817 91.3381C359.04 90.9108 359.268 90.4787 359.499 90.0404L359.732 89.5987C360.639 87.8803 361.62 86.0214 362.49 84.2252C362.613 83.97 362.704 83.7917 362.828 83.5504C362.961 83.2915 363.131 82.9599 363.417 82.3828C363.755 81.7025 364.393 80.4087 364.835 79.1482L364.85 79.1083C364.98 78.7479 365.683 76.7982 365.621 74.3976C365.585 73.0363 365.23 69.2949 362.216 66.5765C359.21 63.8656 356.016 64.3902 354.876 64.6857C352.841 65.2131 351.349 66.5102 350.982 66.8293L350.942 66.864C350.292 67.4245 349.64 68.0791 349.022 68.7358C345.582 72.3925 342.208 76.1101 338.9 79.7571L338.821 79.8436C337.676 81.1056 336.539 82.3591 335.405 83.6039C334.869 81.9369 333.864 80.1562 332.01 78.7568C330.764 77.8164 329.525 77.3781 328.428 77.2088C328.445 76.9721 328.455 76.7281 328.459 76.4775C328.484 74.4434 327.98 70.769 325.091 68.0758C322.525 65.6835 319.771 65.7085 318.669 65.8097C318.426 64.7941 318.017 63.6887 317.342 62.5972C314.117 57.3821 309.151 58.4169 308.64 58.5234L308.635 58.5245C307.407 58.78 306.481 59.2845 306.142 59.4734C305.683 59.7298 305.293 59.9936 305.015 60.1916C304.021 60.8993 302.98 61.8323 302.309 62.535C300.878 64.0342 299.435 65.5573 297.987 67.1023C297.943 67.0783 297.899 67.0546 297.854 67.0311C296.324 66.2275 294.877 66.0657 293.728 66.1401C293.744 65.9168 293.755 65.6826 293.758 65.439C293.775 64.109 293.547 59.7298 289.922 56.8911C286.66 54.3374 283.422 55.3168 282.704 55.5531C281.018 56.1074 279.852 57.1725 279.755 57.261L279.749 57.2665C279.153 57.7862 278.653 58.353 278.442 58.5935C277.423 59.7535 275.77 61.8786 274.129 64.0126C273.198 65.2232 272.22 66.5026 271.244 67.78L271.235 67.7922L271.212 67.8223C270.468 68.7965 269.724 69.7691 269.004 70.7086C268.871 70.4768 268.727 70.2444 268.569 70.0129C268.03 69.2222 267.416 68.561 266.757 68.023C267.759 66.3217 268.751 64.6408 269.728 62.9971C270.363 61.929 270.944 60.9274 271.32 60.1666C271.411 59.9817 271.629 59.5368 271.839 58.9768C271.93 58.7337 272.163 58.0971 272.338 57.2496C272.426 56.8275 272.567 56.0342 272.581 55.0239C272.592 54.1334 272.525 52.1131 271.477 49.9334C270.207 47.2919 268.025 45.5184 265.586 44.959C263.578 44.4985 261.979 44.9858 261.289 45.2401C259.945 45.735 259.029 46.507 258.817 46.6853L258.803 46.6972C258.688 46.7937 258.579 46.89 258.478 46.9835C258.679 46.2597 258.817 45.5317 258.894 44.8409L258.898 44.8054C258.947 44.38 259.187 42.293 258.457 39.9091C258.016 38.4721 256.88 35.8594 254.216 34.2659C251.469 32.6231 248.873 33.1146 247.446 33.6683C245.207 34.5373 243.807 36.1186 243.212 36.8414C242.914 37.2038 242.665 37.5464 242.567 37.6827L242.554 37.7005C242.513 37.7569 242.487 37.7916 242.474 37.8104C241.891 38.5526 239.862 41.297 238.068 43.7333C237.946 42.9183 237.719 41.9727 237.304 40.9879C236.82 39.8405 236.061 38.5975 234.942 37.5514C235.407 35.2709 235.735 32.8715 235.835 30.3769ZM195.072 338.457C195.056 338.421 195.041 338.384 195.025 338.347L195.175 338.37L195.072 338.457ZM231.145 340.821C231.117 340.751 231.088 340.68 231.057 340.609C231.252 340.604 231.446 340.598 231.64 340.592L231.145 340.821ZM148.556 50.2578L148.56 50.2494C148.622 50.1289 148.618 50.1476 148.556 50.2578ZM133.162 42.717C133.166 42.7001 133.166 42.6981 133.163 42.7127L133.162 42.717ZM2.40724 174.393C2.40724 174.393 2.41304 174.385 2.42258 174.372C2.41169 174.387 2.40724 174.393 2.40724 174.393ZM23.894 223.418C23.8338 223.415 23.8476 223.412 23.9206 223.419L23.894 223.418ZM192.535 383.837L192.556 383.804C192.449 383.992 192.418 384.017 192.535 383.837ZM236.591 25.6554C236.59 25.6587 236.561 25.6999 236.505 25.769C236.564 25.6866 236.592 25.6521 236.591 25.6554ZM84.7925 318.687C84.7925 318.687 84.7961 318.68 84.8053 318.664C84.7973 318.678 84.7925 318.687 84.7925 318.687ZM405.94 144.791C405.964 144.776 405.976 144.771 405.976 144.771C405.976 144.771 405.963 144.779 405.94 144.791ZM393.212 120.617C393.248 120.539 393.272 120.496 393.272 120.496C393.272 120.496 393.255 120.534 393.212 120.617ZM15.8086 187.176C15.8074 187.178 15.7972 187.192 15.7799 187.215L15.8014 187.186C15.8071 187.178 15.8086 187.176 15.8086 187.176ZM404.148 216.586C404.176 216.54 404.172 216.548 404.143 216.594L404.148 216.586Z" fill="#0A0719"/>
</svg>
