<svg width="18" height="16" viewBox="0 0 18 16" fill="none" xmlns="http://www.w3.org/2000/svg">
<path d="M1.00049 7C0.448204 7 0.000488281 7.44772 0.000488281 8C0.000488281 8.55228 0.448204 9 1.00049 9V7ZM17.7076 8.70711C18.0981 8.31658 18.0981 7.68342 17.7076 7.29289L11.3436 0.928932C10.9531 0.538408 10.3199 0.538408 9.92942 0.928932C9.5389 1.31946 9.5389 1.95262 9.92942 2.34315L15.5863 8L9.92942 13.6569C9.5389 14.0474 9.5389 14.6805 9.92942 15.0711C10.3199 15.4616 10.9531 15.4616 11.3436 15.0711L17.7076 8.70711ZM1.00049 9H17.0005V7L1.00049 7V9Z" fill="#836EF9"/>
</svg>
