<svg width="24" height="24" viewBox="0 0 24 24" fill="none" xmlns="http://www.w3.org/2000/svg">
<path d="M19.5105 4.4809C22.1095 8.30207 23.393 12.6123 22.9132 17.5743C22.9111 17.5953 22.9002 17.6145 22.883 17.6272C20.9148 19.0724 19.008 19.9494 17.1279 20.531C17.1133 20.5355 17.0976 20.5352 17.0831 20.5303C17.0686 20.5254 17.056 20.5161 17.0471 20.5037C16.6127 19.8994 16.218 19.2622 15.8723 18.5931C15.8524 18.5537 15.8706 18.5063 15.9114 18.4907C16.5382 18.2546 17.1342 17.9715 17.7075 17.6364C17.7527 17.6099 17.7555 17.5452 17.7138 17.5141C17.5922 17.4238 17.4716 17.3289 17.3563 17.234C17.3347 17.2164 17.3057 17.213 17.2812 17.2248C13.5593 18.9435 9.48209 18.9435 5.71614 17.2248C5.69169 17.2138 5.66264 17.2176 5.64164 17.2348C5.52658 17.3298 5.40577 17.4238 5.28524 17.5141C5.24353 17.5452 5.24698 17.6099 5.29243 17.6364C5.86572 17.9652 6.46174 18.2546 7.08767 18.4919C7.12823 18.5074 7.1475 18.5537 7.12737 18.5931C6.78909 19.2631 6.39443 19.9002 5.95202 20.5046C5.93275 20.529 5.9011 20.5402 5.87119 20.531C4.00001 19.9494 2.09316 19.0724 0.125043 17.6272C0.108647 17.6145 0.0968534 17.5944 0.0951275 17.5734C-0.30586 13.2813 0.51136 8.93548 3.4946 4.48003C3.5018 4.46824 3.51273 4.45904 3.52538 4.45357C4.99327 3.77989 6.56587 3.28426 8.20952 3.00121C8.23943 2.99661 8.26935 3.01042 8.28488 3.03688C8.48796 3.39645 8.7201 3.85755 8.87716 4.23438C10.6097 3.96974 12.3693 3.96974 14.138 4.23438C14.2951 3.86561 14.5192 3.39645 14.7214 3.03688C14.7286 3.02375 14.7398 3.01324 14.7533 3.00683C14.7668 3.00042 14.782 2.99846 14.7968 3.00121C16.4413 3.28513 18.0139 3.78075 19.4806 4.45357C19.4935 4.45904 19.5042 4.46824 19.5105 4.4809ZM9.75795 12.6416C9.77607 11.3728 8.85098 10.3228 7.68973 10.3228C6.53797 10.3228 5.62179 11.3636 5.62179 12.6416C5.62179 13.9193 6.55609 14.9601 7.68973 14.9601C8.84177 14.9601 9.75795 13.9193 9.75795 12.6416ZM17.4043 12.6416C17.4224 11.3728 16.4974 10.3228 15.3364 10.3228C14.1843 10.3228 13.2682 11.3636 13.2682 12.6416C13.2682 13.9193 14.2025 14.9601 15.3364 14.9601C16.4974 14.9601 17.4043 13.9193 17.4043 12.6416Z" fill="#F2F2F2"/>
</svg>
